<svg width="1005" height="910" viewBox="0 0 1005 910" fill="none" xmlns="http://www.w3.org/2000/svg">
<g opacity="0.5" filter="url(#filter0_f_196_673)">
<path d="M186.118 716.081C32.9126 624.894 257.392 350.954 348.579 197.749C439.766 44.5428 588.288 26.2156 741.493 117.403C865.344 280.725 839.735 458.661 894.456 639.474C961.401 860.679 341.12 754.806 186.118 716.081Z" fill="url(#paint0_angular_196_673)"/>
<path d="M481.503 585.251C400.73 537.175 363.205 339.367 411.277 258.6C459.35 177.832 594.9 130.231 675.673 178.307C756.446 226.383 835.016 440.194 786.944 520.961C738.872 601.728 562.277 633.327 481.503 585.251Z" fill="url(#paint1_linear_196_673)" fill-opacity="0.5"/>
</g>
<defs>
<filter id="filter0_f_196_673" x="0.00512695" y="-71.8331" width="1033.48" height="981.385" filterUnits="userSpaceOnUse" color-interpolation-filters="sRGB">
<feFlood flood-opacity="0" result="BackgroundImageFix"/>
<feBlend mode="normal" in="SourceGraphic" in2="BackgroundImageFix" result="shape"/>
<feGaussianBlur stdDeviation="67" result="effect1_foregroundBlur_196_673"/>
</filter>
<radialGradient id="paint0_angular_196_673" cx="0" cy="0" r="1" gradientUnits="userSpaceOnUse" gradientTransform="translate(386.667 481.399) rotate(90) scale(314.137 309.474)">
<stop offset="0.0833333" stop-color="#561BBE"/>
<stop offset="0.40625" stop-color="#70E6FB" stop-opacity="0.760417"/>
<stop offset="0.588542" stop-color="#FBF8B3" stop-opacity="0.56126"/>
<stop offset="0.859375" stop-color="#FA8792"/>
</radialGradient>
<linearGradient id="paint1_linear_196_673" x1="725.113" y1="318.978" x2="463.03" y2="487.461" gradientUnits="userSpaceOnUse">
<stop stop-color="#8627A4"/>
<stop offset="1" stop-color="#A42754"/>
</linearGradient>
</defs>
</svg>
